<svg
  xmlns="http://www.w3.org/2000/svg"
  version="1.1"
  xlink="http://www.w3.org/1999/xlink"
  svgjs="http://svgjs.com/svgjs"
  width="1440"
  height="560"
  preserveAspectRatio="none"
  viewBox="0 0 1440 560"
><g mask="url(&quot;#SvgjsMask1010&quot;)" fill="none"><path
      d="M1151.53 249.9L1165.49 249.9L1165.49 267.78L1151.53 267.78z"
      stroke="#d3b714"
    /><path
      d="M268.93 414.98L315.08 414.98L315.08 434.97L268.93 434.97z"
      stroke="#037b0b"
    /><path
      d="M759.01 301.41a35.82 35.82 0 1 0 64.67-30.82z"
      fill="#d3b714"
    /><path
      d="M1193.13 140.11L1245.71 140.11L1245.71 176.7L1193.13 176.7z"
      stroke="#e73635"
    /><path
      d="M837.21 276.38L890.27 276.38L890.27 286.34L837.21 286.34z"
      stroke="#d3b714"
    /><path
      d="M1075.26 408.21L1091.79 408.21L1091.79 430.05L1075.26 430.05z"
      stroke="#037b0b"
    /><path
      d="M284.7 515.2L340.34 515.2L340.34 530.6L284.7 530.6z"
      stroke="#e73635"
    /><path
      d="M46.03 239.09L93.36 239.09L93.36 286.12L46.03 286.12z"
      stroke="#d3b714"
    /><path
      d="M1330.8 468.86L1337.21 468.86L1337.21 489.08L1330.8 489.08z"
      stroke="#037b0b"
    /><path
      d="M443.25 47.79L455.45 47.79L455.45 59.99L443.25 59.99z"
      fill="#e73635"
    /><path
      d="M503.58 197.59a9.32 9.32 0 1 0-0.65 18.63z"
      fill="#d3b714"
    /><path
      d="M431.52 226.3a36.18 36.18 0 1 0-32.52 64.64z"
      fill="#037b0b"
    /><path
      d="M323.69 365.15L345.12 365.15L345.12 396.88L323.69 396.88z"
      stroke="#037b0b"
    /><path
      d="M1262.82 216.56 a34.33 34.33 0 1 0 68.66 0 a34.33 34.33 0 1 0 -68.66 0z"
      fill="#e73635"
    /><path
      d="M829.27 3.55 a43.71 43.71 0 1 0 87.42 0 a43.71 43.71 0 1 0 -87.42 0z"
      fill="#e73635"
    /><path
      d="M60.98 33.58 a19.34 19.34 0 1 0 38.68 0 a19.34 19.34 0 1 0 -38.68 0z"
      stroke="#e73635"
    /><path
      d="M503.2 322.86 a35.87 35.87 0 1 0 71.74 0 a35.87 35.87 0 1 0 -71.74 0z"
      stroke="#e73635"
    /><path
      d="M509.84 461.57L549.65 461.57L549.65 501.38L509.84 501.38z"
      fill="rgba(90, 100, 209, 1)"
    /><path
      d="M1108.37 487.79 a4.65 4.65 0 1 0 9.3 0 a4.65 4.65 0 1 0 -9.3 0z"
      stroke="#d3b714"
    /><path
      d="M85.38 118.91 a22.41 22.41 0 1 0 44.82 0 a22.41 22.41 0 1 0 -44.82 0z"
      stroke="rgba(90, 100, 209, 1)"
    /><path
      d="M127.05 189.95 a55.55 55.55 0 1 0 111.1 0 a55.55 55.55 0 1 0 -111.1 0z"
      fill="#d3b714"
    /><path
      d="M111.65 181.34L136.27 181.34L136.27 205.96L111.65 205.96z"
      fill="#d3b714"
    /><path
      d="M614.7 108.19 a30.77 30.77 0 1 0 61.54 0 a30.77 30.77 0 1 0 -61.54 0z"
      fill="#d3b714"
    /><path
      d="M339.92 374.72L355.46 374.72L355.46 388.63L339.92 388.63z"
      stroke="#d3b714"
    /><path
      d="M804.71 328.37a18.28 18.28 0 1 0-10.95-34.89z"
      fill="#d3b714"
    /><path
      d="M886.78 177.52a15.04 15.04 0 1 0 3.03 29.93z"
      fill="#d3b714"
    /><path
      d="M174.9 65.84L176.68 65.84L176.68 84.02L174.9 84.02z"
      fill="#d3b714"
    /><path
      d="M953.63 119.63L1004.66 119.63L1004.66 170.66L953.63 170.66z"
      stroke="#037b0b"
    /><path
      d="M187.7 137.72a30.09 30.09 0 1 0-51.18-31.66z"
      fill="rgba(90, 100, 209, 1)"
    /><path
      d="M76.13 248.97L104.72 248.97L104.72 277.56L76.13 277.56z"
      stroke="#d3b714"
    /><path
      d="M408.18 410.78L455.04 410.78L455.04 458.46L408.18 458.46z"
      fill="#e73635"
    /><path
      d="M838.12 80.24a42.3 42.3 0 1 0 23.31-81.33z"
      stroke="#d3b714"
    /><path
      d="M684.73 333.52L706.66 333.52L706.66 379.76L684.73 379.76z"
      fill="#d3b714"
    /></g><defs><mask id="SvgjsMask1010"><rect
        width="1440"
        height="560"
        fill="#ffffff"
      /></mask></defs></svg>
