<svg
  xmlns="http://www.w3.org/2000/svg"
  version="1.1"
  xlink="http://www.w3.org/1999/xlink"
  svgjs="http://svgjs.com/svgjs"
  width="1440"
  height="560"
  preserveAspectRatio="none"
  viewBox="0 0 1440 560"
><g mask="url(&quot;#SvgjsMask1080&quot;)" fill="none"><path
      d="M84.08 -43.18L170.69 6.82L170.69 106.82L84.08 156.82L-2.53 106.82L-2.53 6.82zM170.69 106.82L257.29 156.82L257.29 256.82L170.69 306.82L84.08 256.82L84.08 156.82zM84.08 256.82L170.69 306.82L170.69 406.82L84.08 456.82L-2.53 406.82L-2.53 306.82zM84.08 556.82L170.69 606.82L170.69 706.82L84.08 756.82L-2.53 706.82L-2.53 606.82zM343.89 106.82L430.5 156.82L430.5 256.82L343.89 306.82L257.29 256.82L257.29 156.82zM257.29 256.82L343.89 306.82L343.89 406.82L257.29 456.82L170.69 406.82L170.69 306.82zM430.5 -43.18L517.11 6.82L517.11 106.82L430.5 156.82L343.89 106.82L343.89 6.82zM430.5 256.82L517.11 306.82L517.11 406.82L430.5 456.82L343.89 406.82L343.89 306.82zM517.11 406.82L603.71 456.82L603.71 556.82L517.11 606.82L430.5 556.82L430.5 456.82zM690.32 106.82L776.92 156.82L776.92 256.82L690.32 306.82L603.71 256.82L603.71 156.82zM603.71 256.82L690.32 306.82L690.32 406.82L603.71 456.82L517.11 406.82L517.11 306.82zM690.32 406.82L776.92 456.82L776.92 556.82L690.32 606.82L603.71 556.82L603.71 456.82zM776.92 -43.18L863.53 6.82L863.53 106.82L776.92 156.82L690.32 106.82L690.32 6.82zM776.92 556.82L863.53 606.82L863.53 706.82L776.92 756.82L690.32 706.82L690.32 606.82zM950.13 256.82L1036.74 306.82L1036.74 406.82L950.13 456.82L863.53 406.82L863.53 306.82zM1123.34 -43.18L1209.94 6.82L1209.94 106.82L1123.34 156.82L1036.73 106.82L1036.73 6.82zM1209.94 106.82L1296.55 156.82L1296.55 256.82L1209.94 306.82L1123.34 256.82L1123.34 156.82zM1209.94 406.82L1296.55 456.82L1296.55 556.82L1209.94 606.82L1123.34 556.82L1123.34 456.82zM1296.55 -43.18L1383.15 6.82L1383.15 106.82L1296.55 156.82L1209.94 106.82L1209.94 6.82zM1469.76 -43.18L1556.37 6.82L1556.37 106.82L1469.76 156.82L1383.15 106.82L1383.15 6.82zM1556.37 406.82L1642.97 456.82L1642.97 556.82L1556.37 606.82L1469.76 556.82L1469.76 456.82z"
      stroke="rgba(3, 48, 93, 0.16)"
      stroke-width="2"
    /><path
      d="M74.08 -43.18 a10 10 0 1 0 20 0 a10 10 0 1 0 -20 0zM160.69 6.82 a10 10 0 1 0 20 0 a10 10 0 1 0 -20 0zM160.69 106.82 a10 10 0 1 0 20 0 a10 10 0 1 0 -20 0zM74.08 156.82 a10 10 0 1 0 20 0 a10 10 0 1 0 -20 0zM-12.53 106.82 a10 10 0 1 0 20 0 a10 10 0 1 0 -20 0zM-12.53 6.82 a10 10 0 1 0 20 0 a10 10 0 1 0 -20 0zM247.29 156.82 a10 10 0 1 0 20 0 a10 10 0 1 0 -20 0zM247.29 256.82 a10 10 0 1 0 20 0 a10 10 0 1 0 -20 0zM160.69 306.82 a10 10 0 1 0 20 0 a10 10 0 1 0 -20 0zM74.08 256.82 a10 10 0 1 0 20 0 a10 10 0 1 0 -20 0zM160.69 406.82 a10 10 0 1 0 20 0 a10 10 0 1 0 -20 0zM74.08 456.82 a10 10 0 1 0 20 0 a10 10 0 1 0 -20 0zM-12.53 406.82 a10 10 0 1 0 20 0 a10 10 0 1 0 -20 0zM-12.53 306.82 a10 10 0 1 0 20 0 a10 10 0 1 0 -20 0zM74.08 556.82 a10 10 0 1 0 20 0 a10 10 0 1 0 -20 0zM160.69 606.82 a10 10 0 1 0 20 0 a10 10 0 1 0 -20 0zM160.69 706.82 a10 10 0 1 0 20 0 a10 10 0 1 0 -20 0zM74.08 756.82 a10 10 0 1 0 20 0 a10 10 0 1 0 -20 0zM-12.53 706.82 a10 10 0 1 0 20 0 a10 10 0 1 0 -20 0zM-12.53 606.82 a10 10 0 1 0 20 0 a10 10 0 1 0 -20 0zM333.89 106.82 a10 10 0 1 0 20 0 a10 10 0 1 0 -20 0zM420.5 156.82 a10 10 0 1 0 20 0 a10 10 0 1 0 -20 0zM420.5 256.82 a10 10 0 1 0 20 0 a10 10 0 1 0 -20 0zM333.89 306.82 a10 10 0 1 0 20 0 a10 10 0 1 0 -20 0zM333.89 406.82 a10 10 0 1 0 20 0 a10 10 0 1 0 -20 0zM247.29 456.82 a10 10 0 1 0 20 0 a10 10 0 1 0 -20 0zM420.5 -43.18 a10 10 0 1 0 20 0 a10 10 0 1 0 -20 0zM507.11 6.82 a10 10 0 1 0 20 0 a10 10 0 1 0 -20 0zM507.11 106.82 a10 10 0 1 0 20 0 a10 10 0 1 0 -20 0zM333.89 6.82 a10 10 0 1 0 20 0 a10 10 0 1 0 -20 0zM507.11 306.82 a10 10 0 1 0 20 0 a10 10 0 1 0 -20 0zM507.11 406.82 a10 10 0 1 0 20 0 a10 10 0 1 0 -20 0zM420.5 456.82 a10 10 0 1 0 20 0 a10 10 0 1 0 -20 0zM593.71 456.82 a10 10 0 1 0 20 0 a10 10 0 1 0 -20 0zM593.71 556.82 a10 10 0 1 0 20 0 a10 10 0 1 0 -20 0zM507.11 606.82 a10 10 0 1 0 20 0 a10 10 0 1 0 -20 0zM420.5 556.82 a10 10 0 1 0 20 0 a10 10 0 1 0 -20 0zM680.32 106.82 a10 10 0 1 0 20 0 a10 10 0 1 0 -20 0zM766.92 156.82 a10 10 0 1 0 20 0 a10 10 0 1 0 -20 0zM766.92 256.82 a10 10 0 1 0 20 0 a10 10 0 1 0 -20 0zM680.32 306.82 a10 10 0 1 0 20 0 a10 10 0 1 0 -20 0zM593.71 256.82 a10 10 0 1 0 20 0 a10 10 0 1 0 -20 0zM593.71 156.82 a10 10 0 1 0 20 0 a10 10 0 1 0 -20 0zM680.32 406.82 a10 10 0 1 0 20 0 a10 10 0 1 0 -20 0zM766.92 456.82 a10 10 0 1 0 20 0 a10 10 0 1 0 -20 0zM766.92 556.82 a10 10 0 1 0 20 0 a10 10 0 1 0 -20 0zM680.32 606.82 a10 10 0 1 0 20 0 a10 10 0 1 0 -20 0zM766.92 -43.18 a10 10 0 1 0 20 0 a10 10 0 1 0 -20 0zM853.53 6.82 a10 10 0 1 0 20 0 a10 10 0 1 0 -20 0zM853.53 106.82 a10 10 0 1 0 20 0 a10 10 0 1 0 -20 0zM680.32 6.82 a10 10 0 1 0 20 0 a10 10 0 1 0 -20 0zM853.53 606.82 a10 10 0 1 0 20 0 a10 10 0 1 0 -20 0zM853.53 706.82 a10 10 0 1 0 20 0 a10 10 0 1 0 -20 0zM766.92 756.82 a10 10 0 1 0 20 0 a10 10 0 1 0 -20 0zM680.32 706.82 a10 10 0 1 0 20 0 a10 10 0 1 0 -20 0zM940.13 256.82 a10 10 0 1 0 20 0 a10 10 0 1 0 -20 0zM1026.74 306.82 a10 10 0 1 0 20 0 a10 10 0 1 0 -20 0zM1026.74 406.82 a10 10 0 1 0 20 0 a10 10 0 1 0 -20 0zM940.13 456.82 a10 10 0 1 0 20 0 a10 10 0 1 0 -20 0zM853.53 406.82 a10 10 0 1 0 20 0 a10 10 0 1 0 -20 0zM853.53 306.82 a10 10 0 1 0 20 0 a10 10 0 1 0 -20 0zM1113.34 -43.18 a10 10 0 1 0 20 0 a10 10 0 1 0 -20 0zM1199.94 6.82 a10 10 0 1 0 20 0 a10 10 0 1 0 -20 0zM1199.94 106.82 a10 10 0 1 0 20 0 a10 10 0 1 0 -20 0zM1113.34 156.82 a10 10 0 1 0 20 0 a10 10 0 1 0 -20 0zM1026.73 106.82 a10 10 0 1 0 20 0 a10 10 0 1 0 -20 0zM1026.73 6.82 a10 10 0 1 0 20 0 a10 10 0 1 0 -20 0zM1286.55 156.82 a10 10 0 1 0 20 0 a10 10 0 1 0 -20 0zM1286.55 256.82 a10 10 0 1 0 20 0 a10 10 0 1 0 -20 0zM1199.94 306.82 a10 10 0 1 0 20 0 a10 10 0 1 0 -20 0zM1113.34 256.82 a10 10 0 1 0 20 0 a10 10 0 1 0 -20 0zM1199.94 406.82 a10 10 0 1 0 20 0 a10 10 0 1 0 -20 0zM1286.55 456.82 a10 10 0 1 0 20 0 a10 10 0 1 0 -20 0zM1286.55 556.82 a10 10 0 1 0 20 0 a10 10 0 1 0 -20 0zM1199.94 606.82 a10 10 0 1 0 20 0 a10 10 0 1 0 -20 0zM1113.34 556.82 a10 10 0 1 0 20 0 a10 10 0 1 0 -20 0zM1113.34 456.82 a10 10 0 1 0 20 0 a10 10 0 1 0 -20 0zM1286.55 -43.18 a10 10 0 1 0 20 0 a10 10 0 1 0 -20 0zM1373.15 6.82 a10 10 0 1 0 20 0 a10 10 0 1 0 -20 0zM1373.15 106.82 a10 10 0 1 0 20 0 a10 10 0 1 0 -20 0zM1459.76 -43.18 a10 10 0 1 0 20 0 a10 10 0 1 0 -20 0zM1546.37 6.82 a10 10 0 1 0 20 0 a10 10 0 1 0 -20 0zM1546.37 106.82 a10 10 0 1 0 20 0 a10 10 0 1 0 -20 0zM1459.76 156.82 a10 10 0 1 0 20 0 a10 10 0 1 0 -20 0zM1546.37 406.82 a10 10 0 1 0 20 0 a10 10 0 1 0 -20 0zM1632.97 456.82 a10 10 0 1 0 20 0 a10 10 0 1 0 -20 0zM1632.97 556.82 a10 10 0 1 0 20 0 a10 10 0 1 0 -20 0zM1546.37 606.82 a10 10 0 1 0 20 0 a10 10 0 1 0 -20 0zM1459.76 556.82 a10 10 0 1 0 20 0 a10 10 0 1 0 -20 0zM1459.76 456.82 a10 10 0 1 0 20 0 a10 10 0 1 0 -20 0z"
      fill="rgba(3, 48, 93, 0.16)"
    /><path
      d="M41.17 284.57L82.74 308.57L82.74 356.57L41.17 380.57L-0.4 356.57L-0.4 308.57zM41.17 572.57L82.74 596.57L82.74 644.57L41.17 668.57L-0.4 644.57L-0.4 596.57zM165.88 356.57L207.45 380.57L207.45 428.57L165.88 452.57L124.31 428.57L124.31 380.57zM165.88 500.57L207.45 524.57L207.45 572.57L165.88 596.57L124.31 572.57L124.31 524.57zM249.02 68.57L290.59 92.57L290.59 140.57L249.02 164.57L207.45 140.57L207.45 92.57zM332.16 68.57L373.73 92.57L373.73 140.57L332.16 164.57L290.59 140.57L290.59 92.57zM373.73 572.57L415.3 596.57L415.3 644.57L373.73 668.57L332.16 644.57L332.16 596.57zM456.87 284.57L498.44 308.57L498.44 356.57L456.87 380.57L415.3 356.57L415.3 308.57zM498.44 356.57L540.01 380.57L540.01 428.57L498.44 452.57L456.87 428.57L456.87 380.57zM540.01 -3.43L581.59 20.57L581.59 68.57L540.01 92.57L498.44 68.57L498.44 20.57zM747.87 68.57L789.44 92.57L789.44 140.57L747.87 164.57L706.3 140.57L706.3 92.57zM706.3 140.57L747.87 164.57L747.87 212.57L706.3 236.57L664.73 212.57L664.73 164.57zM831.01 356.57L872.58 380.57L872.58 428.57L831.01 452.57L789.44 428.57L789.44 380.57zM789.44 428.57L831.01 452.57L831.01 500.57L789.44 524.57L747.87 500.57L747.87 452.57zM914.15 68.57L955.72 92.57L955.72 140.57L914.15 164.57L872.58 140.57L872.58 92.57zM872.58 428.57L914.15 452.57L914.15 500.57L872.58 524.57L831.01 500.57L831.01 452.57zM955.72 140.57L997.29 164.57L997.29 212.57L955.72 236.57L914.15 212.57L914.15 164.57zM955.72 428.57L997.29 452.57L997.29 500.57L955.72 524.57L914.15 500.57L914.15 452.57zM1038.86 -3.43L1080.43 20.57L1080.43 68.57L1038.86 92.57L997.29 68.57L997.29 20.57zM1080.43 212.57L1122 236.57L1122 284.57L1080.43 308.57L1038.86 284.57L1038.86 236.57zM1038.86 428.57L1080.43 452.57L1080.43 500.57L1038.86 524.57L997.29 500.57L997.29 452.57zM1080.43 500.57L1122 524.57L1122 572.57L1080.43 596.57L1038.86 572.57L1038.86 524.57zM1038.86 572.57L1080.43 596.57L1080.43 644.57L1038.86 668.57L997.29 644.57L997.29 596.57zM1163.57 68.57L1205.14 92.57L1205.14 140.57L1163.57 164.57L1122 140.57L1122 92.57zM1122 284.57L1163.57 308.57L1163.57 356.57L1122 380.57L1080.43 356.57L1080.43 308.57zM1122 428.57L1163.57 452.57L1163.57 500.57L1122 524.57L1080.43 500.57L1080.43 452.57zM1246.71 68.57L1288.28 92.57L1288.28 140.57L1246.71 164.57L1205.14 140.57L1205.14 92.57zM1205.14 140.57L1246.71 164.57L1246.71 212.57L1205.14 236.57L1163.57 212.57L1163.57 164.57zM1205.14 284.57L1246.71 308.57L1246.71 356.57L1205.14 380.57L1163.57 356.57L1163.57 308.57zM1246.71 356.57L1288.28 380.57L1288.28 428.57L1246.71 452.57L1205.14 428.57L1205.14 380.57zM1329.85 212.57L1371.42 236.57L1371.42 284.57L1329.85 308.57L1288.28 284.57L1288.28 236.57zM1329.85 500.57L1371.42 524.57L1371.42 572.57L1329.85 596.57L1288.28 572.57L1288.28 524.57zM1371.42 572.57L1412.99 596.57L1412.99 644.57L1371.42 668.57L1329.85 644.57L1329.85 596.57zM1496.13 212.57L1537.7 236.57L1537.7 284.57L1496.13 308.57L1454.56 284.57L1454.56 236.57zM1454.56 284.57L1496.13 308.57L1496.13 356.57L1454.56 380.57L1412.99 356.57L1412.99 308.57z"
      stroke="rgba(6, 80, 156, 0.2)"
      stroke-width="2"
    /></g><defs><mask id="SvgjsMask1080"><rect
        width="1440"
        height="560"
        fill="#ffffff"
      /></mask></defs></svg>
